<?xml version="1.0" encoding="UTF-8" standalone="no"?>
<!-- Created with Inkscape (http://www.inkscape.org/) -->

<svg
   width="400"
   height="400"
   viewBox="0 0 105.83333 105.83334"
   version="1.1"
   id="svg5"
   inkscape:version="1.1 (c68e22c387, 2021-05-23)"
   sodipodi:docname="Me.svg"
   xmlns:inkscape="http://www.inkscape.org/namespaces/inkscape"
   xmlns:sodipodi="http://sodipodi.sourceforge.net/DTD/sodipodi-0.dtd"
   xmlns="http://www.w3.org/2000/svg"
   xmlns:svg="http://www.w3.org/2000/svg">
  <sodipodi:namedview
     id="namedview7"
     pagecolor="#505050"
     bordercolor="#ffffff"
     borderopacity="1"
     inkscape:pageshadow="0"
     inkscape:pageopacity="0"
     inkscape:pagecheckerboard="1"
     inkscape:document-units="mm"
     showgrid="true"
     units="px"
     inkscape:zoom="2"
     inkscape:cx="123.25"
     inkscape:cy="185.5"
     inkscape:window-width="2560"
     inkscape:window-height="1342"
     inkscape:window-x="1910"
     inkscape:window-y="-10"
     inkscape:window-maximized="1"
     inkscape:current-layer="layer1"
     showguides="false" />
  <defs
     id="defs2" />
  <g
     inkscape:label="Ebene 1"
     inkscape:groupmode="layer"
     id="layer1">
    <path
       style="fill:#d2be9a;fill-opacity:1;stroke:none;stroke-width:0.225908px;stroke-linecap:butt;stroke-linejoin:miter;stroke-opacity:1"
       d="m 43.034227,65.22267 h 19.722351 v 12.629139 c 0,0 0.09113,4.515806 -9.669979,4.507332 -10.093116,-0.0088 -10.052372,-4.507332 -10.052372,-4.507332 z"
       id="path12265"
       sodipodi:nodetypes="cccscc" />
    <path
       style="fill:#91836a;fill-opacity:1;stroke:none;stroke-width:0.103162px;stroke-linecap:butt;stroke-linejoin:miter;stroke-opacity:1"
       d="m 43.016064,66.012377 19.727313,-0.01412 0.05649,2.232688 c 0,0 -0.0113,1.976177 -9.846353,1.974425 -10.169572,-0.0019 -9.9043,-2.387788 -9.9043,-2.387788 z"
       id="path12265-8"
       sodipodi:nodetypes="cccscc" />
    <path
       style="fill:none;stroke:#000000;stroke-width:0.255595px;stroke-linecap:butt;stroke-linejoin:miter;stroke-opacity:1"
       d="m 5.373377,105.57745 94.278065,-0.0138"
       id="path12825" />
    <path
       style="fill:none;stroke:#000000;stroke-width:0.264583px;stroke-linecap:butt;stroke-linejoin:miter;stroke-opacity:1"
       d="M 44.669073,65.22267 H 61.121737"
       id="path13392" />
    <path
       style="fill:none;stroke:#000000;stroke-width:0.264583px;stroke-linecap:butt;stroke-linejoin:miter;stroke-opacity:1"
       d="m 45.233535,65.225186 15.888202,-0.0026"
       id="path17136" />
    <path
       style="fill:#d2be9a;fill-opacity:1;stroke:#d2be9a;stroke-width:1.65053;stroke-linecap:round;stroke-linejoin:bevel;stroke-opacity:1"
       d="m 44.62725,65.88348 c -0.02183,-0.07719 -1.979666,-52.523415 -1.961311,-52.539217 0.0081,-0.0069 1.336315,-0.05644 2.951654,-0.109988 2.332596,-0.07732 3.782219,-0.09748 7.044344,-0.09796 4.065209,-5.94e-4 4.123536,6.76e-4 5.683622,0.122796 l 1.576261,0.123395 1.49262,-0.09603 c 0.820939,-0.05282 1.500037,-0.08846 1.509102,-0.0792 0.01577,0.0161 -1.687132,50.89992 -1.744777,52.135122 l -0.02788,0.597446 h -8.253849 c -6.565133,0 -8.257109,-0.01153 -8.269785,-0.05636 z"
       id="path36014" />
    <g
       id="g35327"
       style="fill:#d2be9a;fill-opacity:1;stroke:#000000;stroke-opacity:1"
       transform="translate(-0.04917974,6.0418795)">
      <g
         id="g35204"
         style="fill:#d2be9a;fill-opacity:1;stroke:#000000;stroke-opacity:1">
        <g
           id="g34832"
           style="fill:#d2be9a;fill-opacity:1;stroke:#000000;stroke-opacity:1">
          <path
             style="fill:#d2be9a;fill-opacity:1;stroke:#d2be9a;stroke-width:0.250879px;stroke-linecap:butt;stroke-linejoin:miter;stroke-opacity:1"
             d="m 44.713895,60.630369 c 0,0 -4.385966,-0.979158 -10.082024,-6.948369 -2.777602,-2.910801 -4.486809,-7.245528 -4.968469,-9.846618 -2.747746,-14.83854 -1.447315,-29.604732 -1.447315,-29.604732 0,0 -1.011959,-11.4553176 14.276474,-11.5710278"
             id="path16633"
             sodipodi:nodetypes="csscc" />
          <path
             style="fill:#d2be9a;fill-opacity:1;stroke:#d2be9a;stroke-width:0.237917px;stroke-linecap:butt;stroke-linejoin:miter;stroke-opacity:1"
             d="m 61.176705,60.632566 c 0,0 4.544427,-0.320412 10.034346,-7.050566 2.839916,-3.481485 3.755048,-9.935772 4.18815,-12.537292 2.470734,-14.840996 0.612099,-26.819541 0.612099,-26.819541 0,0 0.909939,-11.4572131 -12.837203,-11.5729422"
             id="path16633-7"
             sodipodi:nodetypes="csscc" />
        </g>
        <path
           style="fill:#d2be9a;fill-opacity:1;stroke:#d2be9a;stroke-width:0.264583px;stroke-linecap:butt;stroke-linejoin:miter;stroke-opacity:1"
           d="m 44.713895,60.630368 c 0,0 6.212428,0.756415 8.864355,0.766919 2.865465,0.01135 7.598455,-0.764721 7.598455,-0.764721"
           id="path35036"
           sodipodi:nodetypes="ccc" />
      </g>
      <path
         style="fill:#d2be9a;fill-opacity:1;stroke:#000000;stroke-width:0.264583px;stroke-linecap:butt;stroke-linejoin:miter;stroke-opacity:1"
         d="m 42.492562,2.6596221 20.681534,-0.0074"
         id="path35239" />
    </g>
    <path
       style="fill:#c2a45a;fill-opacity:1;stroke:#c2a45a;stroke-width:0.265824px;stroke-linecap:butt;stroke-linejoin:miter;stroke-opacity:1"
       d="m 27.894203,29.154247 0.378305,-15.863448 c 0,0 -0.280346,-1.91951 0.630509,-4.7465436 0.945758,-2.9353625 2.080672,-3.2476351 2.080672,-3.2476351 0.451865,-0.4163634 0.06878,-0.2188993 2.049153,-1.6238173 1.269168,-0.9003721 1.387115,-0.7494545 1.387115,-0.7494545 0,0 6.210502,-0.9368176 7.723722,-0.8119086 1.685984,0.13917 24.173203,-5.246449 33.038603,-0.2498181 1.855781,1.0459376 3.215588,3.6223633 2.395928,7.4945423 -0.319106,1.5075039 0.681894,4.2417339 0.584935,7.6146099 C 77.991155,22.953806 76.6955,30.028611 76.6955,30.028611 L 74.4953,16.66369 c 0,0 -0.07097,-0.689732 -0.868865,-1.6247 -0.890154,-1.043083 -1.92247,-0.833407 -1.92247,-0.833407 l -5.0814,-0.139077 -6.603626,0.428581 -5.438734,-0.436954 -11.278567,0.378201 -5.751232,-0.126554 -4.580613,0.261534 c 0,0 -0.978045,0.220204 -1.415491,0.576635 -0.359257,0.292721 -1.006065,1.229132 -1.006065,1.229132 z"
       id="path22737"
       sodipodi:nodetypes="ccscscssssccscccccccscc" />
    <path
       style="fill:#d2be9a;fill-opacity:1;stroke:#d2be9a;stroke-width:0.264583px;stroke-linecap:round;stroke-linejoin:miter;stroke-opacity:1"
       d="m 28.952684,44.630849 c 0,0 -1.82756,-1.732032 -2.790839,-4.629425 -1.223258,-3.679367 -1.131695,-5.352446 -1.402139,-7.289197 -0.848554,-6.076813 3.232366,-3.480322 3.232366,-3.480322"
       id="path41196"
       sodipodi:nodetypes="cssc" />
    <path
       style="fill:#d2be9a;fill-opacity:1;stroke:#d2be9a;stroke-width:0.265;stroke-linecap:round;stroke-linejoin:round;stroke-miterlimit:0;stroke-dasharray:none;stroke-opacity:1;paint-order:fill markers stroke"
       d="m 75.506193,45.402955 c 0,0 1.858762,-1.630143 2.822041,-4.527536 1.223258,-3.679367 1.131695,-5.352446 1.402139,-7.289197 0.848554,-6.076813 -3.233616,-3.601776 -3.233616,-3.601776"
       id="path41196-6"
       sodipodi:nodetypes="cssc" />
    <g
       id="g45606"
       transform="matrix(0.93321547,0,0,0.73067375,3.2393284,19.151803)">
      <path
         style="fill:none;stroke:#000000;stroke-width:0.264583px;stroke-linecap:butt;stroke-linejoin:miter;stroke-opacity:1"
         d="m 33.150529,71.123886 c 1.136575,9.721361 5.282496,13.768784 18.626192,15.039062"
         id="path45325"
         sodipodi:nodetypes="cc" />
      <path
         style="fill:none;stroke:#000000;stroke-width:0.275305px;stroke-linecap:butt;stroke-linejoin:miter;stroke-opacity:1"
         d="m 72.447984,71.110141 c -1.100726,8.708889 -5.227156,12.869481 -16.435654,14.55798 -1.312577,0.197732 -2.722275,0.361563 -4.235609,0.494827"
         id="path45325-0"
         sodipodi:nodetypes="csc" />
    </g>
    <path
       style="fill:#000000;fill-opacity:1;stroke:#000237;stroke-width:0.0540368;stroke-linecap:round;stroke-linejoin:round;stroke-miterlimit:0;stroke-dasharray:none;stroke-opacity:1;paint-order:fill markers stroke"
       d="m 46.1682,81.478685 c -7.55562,-1.051103 -10.705973,-3.146034 -11.743022,-7.808911 -0.09592,-0.431258 -0.146364,-0.542005 -0.380253,-0.834699 -0.541047,-0.677078 -0.769422,-1.214513 -0.661283,-1.556199 0.231253,-0.730707 1.1908,-1.442417 2.576298,-1.910883 1.551595,-0.524623 3.46303,-0.795389 5.909545,-0.837106 0.510016,-0.0087 1.179729,-0.0066 1.179729,-0.0066 l 2.1e-5,4.421978 c 2.48e-4,2.82042 0.373461,4.655662 0.411001,4.85964 0.27407,1.488272 1.384656,2.714418 3.210856,3.544945 0.300483,0.136656 0.493873,0.24686 0.429757,0.244899 -0.06411,-0.0019 -0.483786,-0.05465 -0.932603,-0.117088 z"
       id="path45969"
       sodipodi:nodetypes="sssssscccscss" />
    <path
       style="fill:#000000;fill-opacity:1;stroke:#000237;stroke-width:0.0545793;stroke-linecap:round;stroke-linejoin:round;stroke-miterlimit:0;stroke-dasharray:none;stroke-opacity:1;paint-order:fill markers stroke"
       d="m 59.157911,81.097108 c 1.072115,-0.624082 1.695878,-0.783747 2.387415,-1.647313 0.624641,-0.780029 1.323711,-1.131852 1.211637,-6.634933 l 0.02209,-4.657069 0.805431,0.06069 c 0,0 4.88795,0.399961 6.476904,1.217252 0.963376,0.495524 1.655126,1.290787 1.595392,1.834137 -0.03303,0.300459 -0.300562,0.815002 -0.677425,1.302891 -0.225823,0.292353 -0.29829,0.443214 -0.381383,0.793978 -0.344622,1.454734 -0.974878,2.736941 -1.819454,3.701535 -0.496518,0.567077 -1.44886,1.335637 -2.188483,1.766155 -0.717763,0.417791 -2.012904,0.983673 -2.925291,1.27814 -0.855744,0.276184 -2.20358,1.006856 -3.317398,1.212919 -1.377589,0.254862 -1.319727,-0.152532 -1.189425,-0.22838 z"
       id="path48635"
       sodipodi:nodetypes="ssscsssssssssss" />
    <path
       style="fill:#000121;fill-opacity:1;stroke:none;stroke-width:0.120865;stroke-linecap:round;stroke-linejoin:round;stroke-miterlimit:0;stroke-dasharray:none;stroke-opacity:1;paint-order:fill markers stroke"
       d="M 8.8968955,105.21213 C 8.7972966,104.88339 8.3662579,101.99166 8.2026406,100.55456 7.5959878,95.226125 7.776599,91.041207 8.7142071,88.70113 c 0.6576707,-1.641413 2.2296649,-3.558935 4.2547489,-5.18995 2.810213,-2.263364 6.314233,-4.200214 12.303113,-6.800554 1.378503,-0.598539 3.293253,-1.430196 4.255,-1.848127 2.123187,-0.922643 3.705425,-1.746305 4.261579,-2.218446 l 0.414593,-0.351965 0.205157,0.853385 c 0.262528,1.092042 0.944039,2.591644 1.625973,3.57781 1.75805,2.542371 5.709273,2.193078 10.691771,4.637772 0.07961,0.03906 0.294647,0.120772 0.404879,0.152186 0.502667,0.143251 1.140574,0.166461 1.543958,0.220179 1.284129,0.171005 2.836718,0.326821 4.279032,0.239463 0.448604,-0.02717 0.916325,-0.07833 1.321396,-0.109027 1.118299,-0.08475 2.134417,-0.213069 3.124139,-0.380315 0.623611,-0.105378 1.440468,-0.410187 1.945887,-0.51351 4.880974,-0.997813 8.204492,-2.403225 9.928677,-5.011151 0.623595,-0.943224 0.892589,-1.51686 1.234253,-2.632077 0.147343,-0.480934 0.28298,-0.895502 0.301415,-0.921262 0.01844,-0.02577 0.327135,0.162 0.685996,0.417246 0.884029,0.628778 1.989573,1.162403 5.827188,2.812679 6.519821,2.803692 10.043547,4.565591 12.668783,6.334517 3.387218,2.282362 5.628481,4.746923 6.453959,7.096965 1.001584,2.851393 0.971039,8.247395 -0.08362,14.771092 l -0.247387,1.53024 H 52.529451 c -34.765251,0 -43.5948212,-0.0316 -43.6325555,-0.15615 z"
       id="path49908"
       sodipodi:nodetypes="ssssssscssssssssssssssssscss" />
    <path
       style="fill:none;stroke:#ffffff;stroke-width:1.794;stroke-linecap:round;stroke-linejoin:miter;stroke-miterlimit:4;stroke-dasharray:none;stroke-opacity:1"
       d="m 37.406902,87.241644 -0.09354,18.723986"
       id="path60906"
       sodipodi:nodetypes="cc" />
    <path
       style="fill:none;stroke:#ffffff;stroke-width:1.79433;stroke-linecap:round;stroke-linejoin:miter;stroke-miterlimit:4;stroke-dasharray:none;stroke-opacity:1"
       d="m 67.807146,87.84166 v 18.25627"
       id="path60906-2" />
    <path
       style="fill:none;stroke:#000000;stroke-width:0.265;stroke-linecap:round;stroke-linejoin:miter;stroke-miterlimit:4;stroke-dasharray:none;stroke-opacity:1"
       d="m 44.059382,53.507359 c 0,0 5.794613,0.529167 8.658847,0.529167 2.873152,0 8.553309,-0.529167 8.553309,-0.529167 0,0 -0.684692,2.734883 -1.841365,3.699441 -1.546086,1.289292 -4.721155,1.779961 -6.57891,1.795494 -2.261718,0.01891 -5.643661,-0.941504 -7.143588,-2.441556 -0.649275,-0.649327 -1.648293,-3.053379 -1.648293,-3.053379 z"
       id="path66191"
       sodipodi:nodetypes="cscsssc" />
    <path
       style="fill:#e45755;fill-opacity:1;stroke:#e45755;stroke-width:0.221319px;stroke-linecap:butt;stroke-linejoin:miter;stroke-opacity:1"
       d="m 47.414605,57.551523 c 0,0 0.556348,-0.835079 1.253496,-0.801428 1.327655,0.06409 2.521992,0.196992 3.788651,0.207587 1.437756,0.01203 2.706566,-0.07809 4.307231,-0.163632 0.709904,-0.03794 0.98623,1.270238 0.98623,1.270238 -1.430107,0.535946 -3.703794,0.802976 -5.323927,0.811155 -1.759839,0.0089 -5.011681,-1.32392 -5.011681,-1.32392 z"
       id="path67155"
       sodipodi:nodetypes="csssssc" />
    <path
       style="fill:#ffffff;fill-opacity:1;stroke:#ffffff;stroke-width:0.381181px;stroke-linecap:butt;stroke-linejoin:miter;stroke-opacity:1"
       d="m 45.194176,53.598238 0.384775,0.974519 c 0,0 4.784208,0.954692 7.347091,0.93045 2.403366,-0.02273 7.190843,-0.927435 7.190843,-0.927435 l 0.125636,-0.93327 c 0,0 -4.807713,0.408729 -7.317271,0.42747 -2.5996,0.0194 -7.731073,-0.471734 -7.731074,-0.471734 z"
       id="path70737"
       sodipodi:nodetypes="ccsccsc" />
    <path
       style="fill:#000000;fill-opacity:1;stroke:#000000;stroke-width:0.430866;stroke-linecap:butt;stroke-linejoin:round;stroke-miterlimit:4;stroke-dasharray:none;stroke-opacity:1;paint-order:fill markers stroke"
       d="m 218.62271,218.78125 c -0.19566,-0.30974 -0.88735,-2.26238 -1.3773,-2.96085 -0.57048,-0.81328 -1.4089,-1.45689 -2.05601,-1.57829 -0.21982,-0.0412 -2.67267,0.0529 -5.45078,0.20923 -7.34731,0.4134 -13.70167,0.39619 -19.94336,-0.054 -5.85936,-0.42262 -6.53179,-0.42597 -7.36777,-0.0367 -0.74693,0.3478 -2.03721,1.51829 -2.73133,2.47776 l -0.67885,0.92917 -1.12591,-0.61176 c -1.41971,-0.7714 -3.02373,-1.86734 -4.1046,-2.80446 -1.48219,-1.28505 -2.2398,-2.94969 -4.10468,-6.67459 -1.30634,-2.60926 -2.21572,-4.62232 -2.1278,-4.71023 0.0367,-0.0367 0.60891,-0.0161 1.27155,0.0459 l 1.2048,0.11262 0.75313,1.89733 c 0.58795,1.48122 0.81076,1.91172 1.01591,1.96295 1.56918,0.39179 10.5621,1.88087 14.81951,2.45388 9.93694,1.3374 14.11625,1.40481 22.94328,0.37008 6.1775,-0.72415 18.24387,-2.68344 18.43549,-2.99349 0.0505,-0.0816 0.19271,-0.95308 0.31611,-1.9365 l 0.22435,-1.78804 0.56072,-0.0769 c 0.73094,-0.10018 1.65083,-0.0985 1.65083,0.003 0,0.26101 -0.88668,2.8894 -1.52707,4.52671 -1.89206,4.83747 -3.68587,7.43982 -6.3516,9.21447 -0.98551,0.65608 -3.76236,2.1633 -4.03377,2.1633 -0.0396,0 0.0186,0.2289 -0.0273,0.15626 z"
       id="path77818"
       transform="scale(0.26458333)"
       sodipodi:nodetypes="ssssssscssssccscsssscsssssss" />
    <path
       style="fill:none;stroke:#000000;stroke-width:0.318938px;stroke-linecap:butt;stroke-linejoin:miter;stroke-opacity:1"
       d="m 68.400264,35.822299 c 0,0 -2.707902,0.657048 -5.381014,0.821785 -1.618267,0.09973 -3.257832,-0.168308 -4.178834,-0.336459 -0.751705,-0.137242 0.107189,-1.422226 0.265447,-1.609254 0.61823,-0.730628 2.415462,-1.404768 7.037038,-1.300979 1.755728,0.03943 2.257363,2.424907 2.257363,2.424907"
       id="path80015-0"
       sodipodi:nodetypes="cssssc" />
    <ellipse
       style="fill:#4cbcc7;fill-opacity:1;stroke:#4cbcc7;stroke-width:1.01646;stroke-linecap:round;stroke-linejoin:round;stroke-miterlimit:4;stroke-dasharray:none;stroke-opacity:1;paint-order:fill markers stroke"
       id="path82036"
       cx="42.324997"
       cy="34.744354"
       rx="0.89030021"
       ry="0.82445109" />
    <path
       style="fill:none;stroke:#000000;stroke-width:0.318938px;stroke-linecap:butt;stroke-linejoin:miter;stroke-opacity:1"
       d="m 37.176619,35.517134 c 0,0 2.707901,0.657048 5.381014,0.821785 1.618267,0.09973 3.257832,-0.168308 4.178834,-0.33646 0.751705,-0.137241 -0.10719,-1.422225 -0.265447,-1.609253 -0.61823,-0.730628 -2.415462,-1.404768 -7.037038,-1.30098 -1.755729,0.03943 -2.257363,2.424908 -2.257363,2.424908"
       id="path80015"
       sodipodi:nodetypes="cssssc" />
    <path
       style="fill:#000000;fill-opacity:1;stroke:#000000;stroke-width:0.0620635;stroke-linecap:round;stroke-linejoin:round;stroke-miterlimit:4;stroke-dasharray:none;stroke-opacity:1;paint-order:fill markers stroke"
       d="m 42.650771,36.171036 c -1.257587,-0.07669 -2.786232,-0.282885 -4.279589,-0.577256 -0.466744,-0.09201 -0.97449,-0.201669 -0.984448,-0.212626 -0.01784,-0.01964 0.122662,-0.406285 0.240573,-0.662006 0.320469,-0.694997 0.760199,-1.159102 1.279191,-1.350094 0.260612,-0.0959 0.282564,-0.09791 1.16299,-0.106308 3.121004,-0.02978 5.19433,0.330768 6.084316,1.058002 0.144178,0.117814 0.268793,0.270747 0.405437,0.497581 0.20373,0.338193 0.315832,0.624169 0.316835,0.808257 6.08e-4,0.114477 -0.02594,0.159244 -0.110798,0.186817 -0.169207,0.05497 -1.33715,0.229571 -1.944484,0.290687 -0.658454,0.06626 -1.66969,0.09746 -2.170027,0.06694 z m -0.02439,-0.09734 c 0.578694,-0.120799 1.018497,-0.615347 1.070429,-1.203663 0.06143,-0.695928 -0.393248,-1.308822 -1.082149,-1.45871 -0.154056,-0.03352 -0.441287,-0.03322 -0.583811,6.7e-4 -0.446133,0.105891 -0.785864,0.379221 -0.967382,0.778299 -0.10943,0.240589 -0.144603,0.536987 -0.09497,0.800344 0.03243,0.172112 0.07801,0.291262 0.171665,0.448714 0.177762,0.298857 0.454428,0.511169 0.799258,0.613336 0.208157,0.06168 0.456012,0.06927 0.686968,0.02108 z"
       id="path84842" />
    <ellipse
       style="fill:#4cbcc7;fill-opacity:1;stroke:#4cbcc7;stroke-width:1.01646;stroke-linecap:round;stroke-linejoin:round;stroke-miterlimit:4;stroke-dasharray:none;stroke-opacity:1;paint-order:fill markers stroke"
       id="path82036-2"
       cx="-63.251888"
       cy="35.049519"
       rx="0.89030021"
       ry="0.82445109"
       transform="scale(-1,1)" />
    <path
       style="fill:#000000;fill-opacity:1;stroke:#000000;stroke-width:0.0620635;stroke-linecap:round;stroke-linejoin:round;stroke-miterlimit:4;stroke-dasharray:none;stroke-opacity:1;paint-order:fill markers stroke"
       d="m 62.926112,36.4762 c 1.257586,-0.07669 2.786231,-0.282885 4.279589,-0.577256 0.466744,-0.09201 0.97449,-0.201669 0.984447,-0.212626 0.01785,-0.01964 -0.12266,-0.406283 -0.240572,-0.662005 -0.320468,-0.694998 -0.760198,-1.159103 -1.279191,-1.350095 -0.260612,-0.09591 -0.282564,-0.09791 -1.162991,-0.106308 -3.121004,-0.02978 -5.194329,0.330769 -6.084314,1.058002 -0.144178,0.117814 -0.268794,0.270747 -0.405438,0.497582 -0.20373,0.338192 -0.315831,0.624169 -0.316834,0.808256 -6.09e-4,0.114477 0.02594,0.159244 0.110798,0.186817 0.169207,0.05497 1.33715,0.229571 1.944484,0.290687 0.658454,0.06626 1.669691,0.09746 2.170027,0.06694 z m 0.02439,-0.09734 c -0.578693,-0.120799 -1.018497,-0.615347 -1.070429,-1.203664 -0.06143,-0.695927 0.393248,-1.308822 1.08215,-1.458709 0.154055,-0.03352 0.441286,-0.03322 0.58381,6.69e-4 0.446133,0.105891 0.785864,0.37922 0.967382,0.778299 0.10943,0.240589 0.144602,0.536987 0.09497,0.800344 -0.03243,0.172111 -0.07801,0.291262 -0.171666,0.448714 -0.177761,0.298858 -0.454427,0.511168 -0.799257,0.613336 -0.208157,0.06168 -0.456011,0.06927 -0.686968,0.02108 z"
       id="path84842-4" />
    <path
       style="fill:#482c06;fill-opacity:1;stroke:#482c06;stroke-width:0;stroke-linecap:round;stroke-linejoin:round;stroke-miterlimit:4;stroke-dasharray:none;stroke-opacity:1;paint-order:fill markers stroke"
       id="path85141"
       d="m 34.580534,32.259996 c 1.159528,-0.228423 2.313646,-0.4746 3.487944,-0.652613 0.379048,-0.05746 0.760335,-0.10522 1.140501,-0.157823 1.384792,-0.165377 2.799912,-0.286045 4.193254,-0.105625 0.610681,0.07907 0.998135,0.06242 1.553864,0.216589 0.561236,0.217251 1.121973,0.298891 1.591511,0.530457 l 2.3473,-1.908621 -0.190024,-0.07529 c -0.609967,-0.241669 -0.108374,-0.01823 -0.843191,-0.185031 -0.240254,-0.0415 -0.478121,-0.09292 -0.720761,-0.12453 -1.359089,-0.177035 -2.754729,-0.12977 -4.120409,-0.03589 -0.376175,0.02586 -0.750989,0.06294 -1.126486,0.0944 -0.350254,0.03206 -0.700749,0.06251 -1.050766,0.09617 -0.728955,0.07008 -1.457157,0.159742 -2.190663,0.196915 -0.280682,0.01421 -1.861021,0.884047 -2.080534,0.870235 l -1.99154,1.240621 z"
       sodipodi:nodetypes="cscscccscsscccccc" />
    <path
       style="fill:#482c06;fill-opacity:1;stroke:#482c06;stroke-width:0;stroke-linecap:round;stroke-linejoin:round;stroke-miterlimit:4;stroke-dasharray:none;stroke-opacity:1;paint-order:fill markers stroke"
       id="path85141-4"
       d="m 70.871681,32.179043 c -1.159528,-0.228424 -2.313646,-0.4746 -3.487944,-0.652614 -0.379048,-0.05746 -0.760335,-0.10522 -1.140501,-0.157822 -1.384792,-0.165377 -2.799912,-0.286046 -4.193254,-0.105625 -0.610681,0.07907 -0.998135,0.06242 -1.553864,0.216588 -0.561236,0.217251 -1.121973,0.298891 -1.591511,0.530458 l -2.3473,-1.908622 0.190024,-0.07529 c 0.609967,-0.241669 0.108374,-0.01823 0.843191,-0.185031 0.240254,-0.0415 0.478121,-0.09292 0.720761,-0.124529 1.359089,-0.177036 2.754729,-0.129771 4.120409,-0.03589 0.376175,0.02586 0.750989,0.06293 1.126486,0.0944 0.350254,0.03205 0.700749,0.0625 1.050766,0.09617 0.728955,0.07008 1.457157,0.159742 2.190663,0.196915 0.280682,0.01421 1.861021,0.884047 2.080534,0.870235 l 1.99154,1.240621 z"
       sodipodi:nodetypes="cscscccscsscccccc" />
    <path
       style="fill:#b5a98f;fill-opacity:1;stroke:#b5a98f;stroke-width:0.264583px;stroke-linecap:butt;stroke-linejoin:miter;stroke-opacity:1"
       d="m 47.034388,44.33181 h 11.046354 c 0,0 -0.71679,1.19695 -1.904692,1.870162 -1.014079,0.574702 -2.425309,0.642136 -3.437071,0.633979 -1.131368,-0.0091 -2.792451,-0.24496 -3.982628,-0.901988 -1.061907,-0.586217 -1.721963,-1.602153 -1.721963,-1.602153 z"
       id="path86790"
       sodipodi:nodetypes="ccsssc" />
  </g>
</svg>
